<?xml version="1.0" standalone="no"?><!DOCTYPE svg PUBLIC "-//W3C//DTD SVG 1.1//EN" "http://www.w3.org/Graphics/SVG/1.1/DTD/svg11.dtd"><svg t="1712765250057" class="icon" viewBox="0 0 1024 1024" version="1.1" xmlns="http://www.w3.org/2000/svg" p-id="3033" xmlns:xlink="http://www.w3.org/1999/xlink" width="200" height="200"><path d="M975.22688 409.72288H858.5216l-26.4704-64.9728 81.80736-79.4112c3.60448-3.60448 6.01088-8.41728 6.01088-13.23008 0-4.8128-2.4064-9.6256-6.01088-13.24032L792.34048 120.95488c-7.22944-7.2192-18.04288-7.2192-25.27232 0l-83.01568 80.61952-67.3792-27.67872V48.76288C616.68352 39.14752 608.256 30.72 598.6304 30.72H426.57792c-9.6256 0-18.05312 8.42752-18.05312 18.04288V175.104l-68.57728 26.48064-81.8176-79.42144c-7.2192-7.2192-18.05312-7.2192-25.27232 0L111.33952 240.0768c-3.61472 3.60448-6.02112 8.41728-6.02112 13.23008 0 4.8128 2.4064 9.6256 6.02112 13.24032l81.8176 79.42144-28.8768 64.9728H48.77312c-9.6256 0-18.05312 8.41728-18.05312 18.04288v167.24992c0 9.61536 8.42752 18.04288 18.05312 18.04288H165.4784l26.4704 64.96256-81.80736 79.42144c-3.60448 3.61472-6.01088 8.42752-6.01088 13.24032s2.4064 9.6256 6.01088 13.23008l121.51808 117.9136c7.22944 7.2192 18.04288 7.2192 25.27232 0l83.01568-80.60928 67.3792 27.65824v125.1328c0 9.6256 8.41728 18.05312 18.04288 18.05312h172.06272c9.6256 0 18.04288-8.42752 18.04288-18.05312V848.896l68.58752-26.4704 81.8176 79.4112c7.2192 7.2192 18.04288 7.2192 25.26208 0l121.52832-117.9136c3.60448-3.60448 6.01088-8.42752 6.01088-13.24032s-2.4064-9.61536-6.01088-13.23008l-81.8176-79.4112 28.8768-64.9728h115.5072c9.6256 0 18.04288-8.42752 18.04288-18.05312V427.776c0-10.83392-7.2192-18.05312-18.04288-18.05312z" fill="#0E5DA1" p-id="3034"></path><path d="M957.184 576.9728H847.69792c-7.22944 0-13.24032 4.8128-16.8448 10.82368l-38.5024 86.6304c-3.61472 7.2192-1.20832 14.4384 3.60448 20.45952l78.21312 75.79648-96.256 92.66176-78.21312-75.80672c-4.8128-4.8128-12.032-6.01088-19.2512-3.60448l-90.24512 34.88768c-7.2192 2.4064-12.032 9.6256-12.032 16.8448v120.32H442.2144V836.87424c0-7.2192-4.8128-14.4384-10.83392-16.8448l-89.01632-37.30432c-7.2192-2.4064-14.44864-1.19808-19.2512 3.61472l-78.21312 75.78624-96.256-92.64128 76.99456-74.5984c4.8128-4.8128 7.22944-13.24032 3.60448-19.2512l-36.08576-87.83872c-2.41664-7.2192-9.6256-10.82368-16.85504-10.82368H65.61792V445.81888H175.104c7.2192 0 13.24032-4.8128 16.8448-10.82368l38.5024-86.6304c3.61472-7.2192 1.20832-14.4384-3.59424-20.45952l-78.21312-75.79648 96.256-92.65152 78.21312 75.78624c4.80256 4.8128 12.032 6.02112 19.2512 3.61472l90.22464-34.89792c7.2192-2.4064 12.032-9.6256 12.032-16.8448V66.79552h135.96672v119.12192c0 7.2192 4.8128 14.4384 10.82368 16.8448l89.0368 37.29408c7.2192 2.4064 14.4384 1.20832 19.2512-3.60448l78.21312-75.78624 96.256 92.64128-77.0048 74.5984c-4.8128 4.8128-7.2192 13.24032-3.61472 19.2512l36.096 87.83872c2.4064 7.2192 9.6256 10.82368 16.8448 10.82368h110.6944v131.15392z" fill="#FFFFFF" p-id="3035"></path><path d="M710.53312 537.1904h-42.9568c-6.27712 0-11.52 4.07552-14.66368 9.17504l-17.80736 39.81312c-2.08896 6.13376-1.04448 13.2608 3.14368 17.3568l30.38208 29.5936-33.52576 32.6656-30.38208-29.5936c-4.18816-4.096-10.47552-6.144-16.76288-3.072l-41.90208 16.34304a15.36 15.36 0 0 0-10.48576 14.2848v47.96416h-48.1792V663.7568c0-6.12352-4.1984-12.24704-9.4208-14.2848l-40.8576-17.36704c-6.28736-2.048-12.58496-1.024-16.77312 3.072l-31.42656 30.6176-33.51552-32.6656 30.38208-29.5936c4.18816-4.08576 6.27712-11.22304 3.13344-17.3568l-16.77312-40.82688c-2.08896-6.13376-8.36608-10.20928-14.66368-10.20928h-44.00128v-45.9264h42.9568c6.28736 0 11.52-4.07552 14.66368-9.19552l17.8176-39.79264c2.0992-6.13376 1.05472-13.27104-3.13344-17.3568l-30.38208-29.5936 33.51552-32.6656 30.38208 29.5936c4.1984 4.07552 10.48576 6.12352 16.76288 3.06176l41.91232-16.3328a15.39072 15.39072 0 0 0 10.46528-14.29504V314.6752h48.18944v47.9744c0 6.12352 4.1984 12.24704 9.4208 14.29504l40.86784 17.34656c6.27712 2.048 12.57472 1.024 16.76288-3.05152l31.42656-30.6176 33.52576 32.6656-30.38208 29.5936c-4.1984 4.08576-6.28736 11.22304-3.14368 17.3568l16.76288 40.81664c2.0992 6.12352 8.38656 10.21952 14.66368 10.21952h44.00128v45.9264z" fill="#FFE7CF" p-id="3036"></path><path d="M711.7312 532.45952h-42.10688c-7.2192 0-13.24032 4.8128-16.8448 10.82368l-18.05312 40.9088c-3.59424 7.2192-1.19808 14.4384 3.61472 20.45952l28.8768 28.8768-31.2832 30.07488-30.08512-28.8768c-4.8128-4.8128-12.032-6.01088-19.2512-3.60448l-42.10688 16.8448c-7.2192 2.4064-12.032 9.6256-12.032 16.8448v46.91968H487.936V666.0096c0-7.2192-4.8128-14.4384-10.82368-16.8448l-42.11712-18.04288c-7.2192-2.4064-14.4384-1.20832-19.2512 3.60448l-30.07488 28.8768-31.2832-30.07488 28.8768-27.67872c4.8128-4.8128 7.2192-13.23008 3.60448-19.2512l-16.8448-40.9088c-2.41664-7.2192-9.6256-10.82368-16.8448-10.82368h-42.10688V492.7488h42.10688c7.2192 0 13.24032-4.8128 16.8448-10.82368l18.05312-40.9088c3.59424-7.2192 1.19808-14.4384-3.61472-20.45952l-28.8768-28.8768 31.2832-30.07488 30.08512 28.8768c4.8128 4.8128 12.032 6.01088 19.2512 3.60448l42.10688-16.8448c7.2192-2.4064 12.032-9.6256 12.032-16.8448v-46.91968h44.52352v45.7216c0 7.2192 4.8128 14.4384 10.82368 16.8448l42.11712 18.04288c7.2192 2.4064 14.4384 1.20832 19.2512-3.60448l30.07488-28.8768 31.2832 30.07488-28.8768 27.67872c-4.8128 4.8128-7.2192 13.23008-3.60448 19.2512l16.8448 40.9088c2.4064 7.2192 9.6256 10.82368 16.8448 10.82368h42.10688v42.11712z m36.096-60.16c0-9.6256-8.41728-18.05312-18.04288-18.05312h-48.128l-7.2192-19.2512 33.6896-32.48128c3.60448-3.61472 6.01088-8.42752 6.01088-13.24032s-2.4064-9.6256-6.01088-13.24032l-56.55552-55.35744c-7.22944-7.2192-18.04288-7.2192-25.26208 0l-33.6896 33.6896-19.2512-8.41728V294.1952c0-9.6256-8.42752-18.04288-18.05312-18.04288h-80.60928c-9.6256 0-18.05312 8.41728-18.05312 18.04288v51.74272l-20.45952 7.2192-33.6896-32.49152c-7.2192-7.2192-18.04288-7.2192-25.26208 0l-56.54528 55.3472c-3.61472 3.61472-6.02112 8.42752-6.02112 13.24032s2.4064 9.6256 6.02112 13.23008l33.67936 32.49152-8.42752 18.04288h-48.128c-9.6256 0-18.04288 8.43776-18.04288 18.05312v78.20288c0 9.6256 8.41728 18.05312 18.04288 18.05312h48.128l7.2192 19.26144-33.6896 32.49152c-3.59424 3.60448-6.01088 8.41728-6.01088 13.23008 0 4.8128 2.41664 9.6256 6.01088 13.23008l56.56576 55.35744c7.2192 7.2192 18.03264 7.2192 25.25184 0l33.6896-33.6896 19.2512 8.41728v51.73248c0 9.6256 8.43776 18.05312 18.05312 18.05312h21.6576v96.256h36.096v-96.256h22.85568c9.6256 0 18.05312-8.42752 18.05312-18.05312V675.6352l20.44928-7.2192 33.6896 32.48128c7.2192 7.23968 18.05312 7.23968 25.27232 0l56.54528-55.3472c3.61472-3.584 6.02112-8.41728 6.02112-13.23008 0-4.8128-2.4064-9.6256-6.02112-13.24032l-33.6896-32.48128 8.43776-18.05312h48.128c9.61536 0 18.04288-8.41728 18.04288-18.04288v-20.45952h96.256v-36.096h-96.256v-21.6576z" fill="#FFA950" p-id="3037"></path><path d="M493.94688 142.62272h36.10624v-36.10624h-36.10624zM493.94688 915.06688h36.10624v-36.08576h-36.10624z" fill="#0E5DA1" p-id="3038"></path><path d="M493.94688 276.16256h36.10624v-96.256h-36.10624z" fill="#FFA950" p-id="3039"></path><path d="M110.14144 528.8448h36.096V492.7488h-36.096zM881.38752 528.8448h36.096V492.7488h-36.096z" fill="#0E5DA1" p-id="3040"></path><path d="M182.33344 528.8448h96.256V492.7488h-96.256zM513.20832 552.9088c-22.85568 0-42.10688-19.2512-42.10688-42.11712 0-22.85568 19.2512-42.10688 42.10688-42.10688 22.86592 0 42.11712 19.2512 42.11712 42.10688 0 22.86592-18.05312 42.11712-42.11712 42.11712m0-120.32a78.04928 78.04928 0 0 0-78.20288 78.20288 78.04928 78.04928 0 0 0 78.20288 78.21312 78.04928 78.04928 0 0 0 78.21312-78.21312 78.04928 78.04928 0 0 0-78.21312-78.20288" fill="#FFA950" p-id="3041"></path></svg>