<svg xmlns="http://www.w3.org/2000/svg" xmlns:xlink="http://www.w3.org/1999/xlink" width="200" height="200" viewBox="0 0 200 200" fill="none">
<rect x="0" y="0" width="0" height="0" fill="rgba(49, 53, 65, 1)" />
<path d="M109.386 83.8891L101.363 83.8891C100.19 83.8891 99.2122 84.6512 98.6248 85.6009L95.2993 93.0178C94.9072 94.1601 95.1024 95.4901 95.8851 96.2537L101.558 101.769L95.2961 107.856L89.6245 102.339C88.8435 101.579 87.6689 101.197 86.4957 101.768L78.67 104.811C77.4969 105.193 76.7143 106.332 76.7143 107.475L76.7143 116.414L67.7139 116.414L67.7139 107.475C67.7139 106.332 66.9329 105.193 65.9551 104.811L58.3246 101.579C57.1499 101.197 55.9753 101.388 55.1926 102.148L49.3242 107.855L43.0636 101.768L48.7368 96.2522C49.5195 95.4901 49.9114 94.1585 49.3242 93.0163L46.1939 85.41C45.8002 84.2677 44.6287 83.5072 43.454 83.5072L35.2378 83.5072L35.2378 74.9481L43.2587 74.9481C44.4334 74.9481 45.4114 74.186 45.9986 73.2363L49.3242 65.8178C49.7146 64.677 49.5195 63.3471 48.7368 62.5835L43.0636 57.0693L49.3242 50.9807L54.9975 56.4982C55.78 57.2585 56.9547 57.6388 58.1278 57.0677L65.9536 54.0241C67.1282 53.6424 67.9107 52.5033 67.9107 51.3626L67.9107 42.4216L76.9096 42.4216L76.9096 51.3626C76.9096 52.5033 77.6921 53.644 78.67 54.0241L86.2989 57.2585C87.4736 57.6388 88.6465 57.4494 89.4292 56.6874L95.2977 50.9807L101.56 57.0693L95.8866 62.5835C95.1041 63.3438 94.712 64.6772 95.3009 65.8178L98.4312 73.4255C98.8216 74.5679 99.9947 75.3283 101.169 75.3283L109.386 75.3283L109.386 83.8876L109.386 83.8891Z"   fill="#FFE7CF" >
</path>
<path d="M109.394 83.9211L101.074 83.9211C99.9878 83.9211 99.0839 84.6418 98.5439 85.5439L95.2875 92.9448C94.746 94.0267 95.1066 95.1085 95.8308 96.0121L101.617 101.607L95.1066 107.923L89.3184 102.148C88.594 101.426 87.5107 101.246 86.4258 101.607L78.6472 104.675C78.6149 104.686 78.5828 104.698 78.551 104.711C78.5191 104.723 78.4875 104.736 78.4561 104.75C78.4247 104.764 78.3937 104.778 78.3628 104.793C78.3319 104.809 78.3014 104.824 78.2711 104.84C78.2408 104.856 78.211 104.873 78.1813 104.89C78.1516 104.908 78.1224 104.926 78.0935 104.944C78.0645 104.963 78.0359 104.982 78.0077 105.001C77.9796 105.021 77.9517 105.041 77.9242 105.061C77.8967 105.082 77.8696 105.103 77.843 105.125C77.8164 105.147 77.7901 105.169 77.7643 105.192C77.7385 105.214 77.7131 105.237 77.6882 105.261C77.6633 105.285 77.6388 105.309 77.6147 105.334C77.5907 105.358 77.5672 105.383 77.5441 105.409C77.521 105.434 77.4984 105.46 77.4763 105.487C77.4543 105.513 77.4326 105.54 77.4115 105.567C77.3905 105.594 77.3699 105.622 77.3499 105.65C77.3297 105.678 77.3102 105.707 77.2913 105.735C77.2724 105.764 77.2539 105.793 77.2361 105.823C77.2183 105.852 77.201 105.882 77.1843 105.912C77.1675 105.942 77.1512 105.973 77.1357 106.004C77.1201 106.035 77.1051 106.066 77.0908 106.097C77.0763 106.128 77.0625 106.16 77.0493 106.192C77.036 106.224 77.0234 106.256 77.0114 106.288C76.9994 106.321 76.9881 106.353 76.9773 106.386C76.9665 106.419 76.9564 106.452 76.9469 106.485C76.9375 106.518 76.9286 106.552 76.9203 106.585C76.9121 106.619 76.9044 106.653 76.8973 106.686C76.8904 106.72 76.8841 106.754 76.8784 106.788C76.8727 106.822 76.8677 106.857 76.8632 106.891C76.8587 106.925 76.8551 106.96 76.852 106.994C76.8489 107.028 76.8464 107.063 76.8446 107.097C76.8429 107.132 76.8417 107.166 76.8412 107.201L76.8412 116.406L67.4361 116.406L67.4361 107.382C67.4361 106.301 66.7118 105.219 65.808 104.856L58.0326 101.609C56.9461 101.248 55.8597 101.426 55.1385 102.15L49.1707 107.925L42.6583 101.609L48.448 96.0121C49.1707 95.2914 49.533 94.0283 48.9897 93.1247L45.9145 85.5454C45.5524 84.4636 44.4674 83.9211 43.3825 83.9211L35.0624 83.9211L35.0624 74.8974L43.3825 74.8974C44.4691 74.8974 45.3728 74.1751 45.9145 73.2746L49.1692 65.8737C49.7125 64.7918 49.3519 63.7069 48.6276 62.8064L42.8393 57.2111L49.3519 50.8951L55.1385 56.6701C55.8612 57.3924 56.9462 57.5722 58.0326 57.2111L65.808 54.1438C65.8404 54.1324 65.8725 54.1206 65.9044 54.108C65.9364 54.0955 65.968 54.0824 65.9994 54.0686C66.0309 54.0547 66.062 54.0405 66.0929 54.0254C66.1238 54.0105 66.1544 53.9949 66.1847 53.9788C66.215 53.9626 66.2448 53.9458 66.2745 53.9284C66.3042 53.9112 66.3334 53.8933 66.3624 53.8748C66.3915 53.8563 66.4201 53.8374 66.4483 53.8178C66.4765 53.7984 66.5044 53.7782 66.5319 53.7575C66.5594 53.7369 66.5866 53.7157 66.6133 53.6941C66.6398 53.6726 66.6661 53.6503 66.6921 53.6277C66.718 53.605 66.7433 53.5818 66.7684 53.5581C66.7933 53.5343 66.8178 53.5102 66.8419 53.4856C66.866 53.4609 66.8896 53.4359 66.9126 53.4105C66.9359 53.3848 66.9585 53.3589 66.9806 53.3325C67.0027 53.3061 67.0244 53.2792 67.0455 53.252C67.0666 53.2248 67.0872 53.1971 67.1073 53.1692C67.1275 53.1411 67.147 53.1126 67.1659 53.0839C67.1848 53.0551 67.2033 53.0259 67.2213 52.9964C67.2391 52.9669 67.2565 52.9371 67.2732 52.9069C67.29 52.8768 67.3063 52.8463 67.3218 52.8154C67.3373 52.7846 67.3524 52.7536 67.3669 52.7222C67.3813 52.6908 67.3952 52.6591 67.4084 52.6273C67.4216 52.5954 67.4342 52.5633 67.4464 52.5308C67.4584 52.4984 67.4697 52.4658 67.4805 52.4329C67.4914 52.4001 67.5016 52.367 67.5111 52.3338C67.5206 52.3007 67.5296 52.2673 67.5379 52.2336C67.546 52.2 67.5537 52.1663 67.5608 52.1324C67.5677 52.0986 67.5742 52.0646 67.5798 52.0305C67.5855 51.9963 67.5906 51.9621 67.5951 51.9278C67.5995 51.8935 67.6032 51.8592 67.6063 51.8247C67.6095 51.7902 67.612 51.7557 67.6137 51.7212C67.6155 51.6866 67.6167 51.652 67.6172 51.6174L67.6172 42.4123L77.0224 42.4123L77.0224 51.4361C77.0224 52.5179 77.7451 53.5997 78.6488 53.9625L86.4258 57.2096C87.5107 57.5706 88.594 57.3909 89.3184 56.6686L95.286 50.8936L101.797 57.2096L96.0104 62.8048C95.286 63.5271 94.9239 64.7902 95.4687 65.694L98.5439 73.2731C98.906 74.3549 99.9878 74.8959 101.074 74.8959L109.393 74.8959L109.393 83.9211L109.394 83.9211ZM112.287 69.6632L103.065 69.6632L101.257 65.5125L107.768 59.1965C108.311 58.6557 108.673 57.9319 108.673 57.2111C108.673 56.4888 108.311 55.7681 107.768 55.2256L97.2795 45.1185C96.1929 44.0367 94.5665 44.0367 93.48 45.1185L86.9706 51.4361L82.6294 49.6319L82.6294 39.7046C82.6294 38.2616 81.3634 37 79.918 37L65.0852 37C63.6381 37 62.3723 38.2616 62.3723 39.7046L62.3723 49.6319L58.0326 51.2546L51.52 44.9386C50.4367 43.8569 48.8086 43.8569 47.7238 44.9386L37.2338 55.0443C36.692 55.5868 36.3299 56.3075 36.3299 57.0314C36.3299 57.7519 36.692 58.4742 37.2338 59.0168L43.7447 65.3328L41.9356 69.4819L32.7116 69.4819C31.2644 69.4819 30 70.7452 30 72.1896L30 86.6272C30 88.0703 31.2644 89.3335 32.7116 89.3335L41.9356 89.3335L43.7464 93.4858L37.2338 99.8018C36.692 100.343 36.3299 101.065 36.3299 101.786C36.3299 102.509 36.692 103.23 37.2338 103.771L47.7238 113.878C48.8086 114.962 50.4367 114.962 51.52 113.878L58.0326 107.562L62.3723 109.368L62.3723 119.292C62.3723 120.735 63.6383 122 65.0852 122L79.9164 122C81.3619 122 82.6279 120.735 82.6279 119.292L82.6279 109.368L86.9691 107.562L93.4784 113.878C94.5648 114.962 96.1914 114.962 97.2779 113.878L107.765 103.771C108.309 103.23 108.672 102.509 108.672 101.786C108.672 101.065 108.309 100.344 107.766 99.8018L101.255 93.4858L103.063 89.3335L112.287 89.3335C113.734 89.3335 115 88.0703 115 86.6272L115 72.1896C115 70.7452 113.734 69.6632 112.287 69.6632L112.287 69.6632Z"   fill="#FFA950" >
</path>
<path d="M72.4969 87.9012C67.9747 87.9012 64.1783 84.1116 64.1783 79.5999C64.1783 75.0879 67.9747 71.2968 72.4969 71.2968C77.0176 71.2968 80.8155 75.0879 80.8155 79.5999C80.8155 84.1116 77.0176 87.9012 72.4969 87.9012ZM72.4969 65.7047C64.901 65.7047 58.7507 71.8393 58.7507 79.4184C58.7507 86.9992 64.901 93.1355 72.4969 93.1355C80.0928 93.1355 86.2431 86.9992 86.2431 79.4184C86.24 71.8393 80.0913 65.7047 72.4969 65.7047Z"   fill="#FFA950" >
</path>
<path d="M177.53 17L22.24 17C14.428 17 8 24.2273 8 33.0038L8 143.188C8 151.962 14.428 159.191 22.24 159.191L75.31 159.191L75.31 177.254L59.69 177.254L59.69 185L140.08 185L140.08 177.254L124.69 177.254L124.69 159.191L177.53 159.191C185.338 159.191 192 152.28 192 143.506C192 143.506 192 77.1433 192 32.9014C191.73 24.6436 188 17 177.65 17C177.61 17 177.57 17 177.53 17ZM177.65 24.3251C115.486 24.4935 22.24 24.746 22.24 24.746C18.1021 24.746 14.89 28.6155 14.89 33.0038L14.89 143.188C14.89 147.833 18.3341 151.445 22.24 151.445L177.53 151.445C181.666 151.445 184.88 147.576 184.88 143.188L184.88 143.199L185 32.6057C185 27.4852 181 24.3251 177.65 24.3251Z" fill-rule="evenodd"  fill="#0E5DA1" >
</path>
<path d="M82 176.97L117.606 176.97L117.606 161.09L82 161.09L82 176.97Z"   fill="#DAE6EE" >
</path>
<path d="M171.782 145C169.435 145 167.008 144.129 165.248 142.324L152.191 129.476C142.216 133.953 130.625 131.927 122.777 124.2C114.489 116.112 112.663 103.911 118.091 93.8017C118.384 93.224 119.037 92.7869 119.697 92.6425C120.357 92.5703 121.098 92.7942 121.611 93.2275L136.208 107.592C138.115 109.47 141.187 109.47 143.094 107.592C145.001 105.715 145.001 102.688 143.094 100.811L128.497 86.5108C127.984 86.0054 127.767 85.3479 127.914 84.6258C128.061 83.9037 128.431 83.333 129.091 83.0442C139.36 77.7005 151.753 79.5065 159.968 87.5942C167.816 95.3208 169.873 106.803 165.325 116.552L173.388 124.493C174.268 125.359 174.268 126.732 173.388 127.526C172.508 128.392 171.115 128.392 170.308 127.526L161.068 118.567C160.408 117.917 160.265 116.837 160.705 116.042C165.253 107.666 163.706 97.4804 156.811 90.6925C150.723 84.6989 141.776 82.8279 133.854 85.6442L146.251 97.8425C149.845 101.381 149.845 107.156 146.251 110.767C142.657 114.305 136.795 114.305 133.128 110.767L120.731 98.5683C117.797 106.367 119.696 115.101 125.857 121.167C132.678 127.882 143.026 129.407 151.608 125.002C152.488 124.568 153.511 124.709 154.171 125.359L168.328 139.291C170.235 141.168 173.318 141.168 175.225 139.291C177.132 137.413 177.132 134.387 175.225 132.509C174.345 131.643 174.345 130.27 175.225 129.476C176.105 128.609 177.498 128.609 178.305 129.476C181.899 133.014 181.899 138.789 178.305 142.4C176.471 144.133 174.129 145 171.782 145Z"   fill="#FFA950" >
</path>
</svg>
