<?xml version="1.0" standalone="no"?><!DOCTYPE svg PUBLIC "-//W3C//DTD SVG 1.1//EN" "http://www.w3.org/Graphics/SVG/1.1/DTD/svg11.dtd"><svg t="1711695517344" class="icon" viewBox="0 0 1024 1024" version="1.1" xmlns="http://www.w3.org/2000/svg" p-id="19105" xmlns:xlink="http://www.w3.org/1999/xlink" width="200" height="200"><path d="M536.669091 153.879273l313.483636 180.968727c15.220364 8.843636 24.669091 25.088 24.669091 42.682182v362.030545c0 17.594182-9.448727 33.885091-24.669091 42.682182l-313.530182 180.968727c-15.220364 8.843636-33.978182 8.843636-49.24509 0l-313.530182-180.968727a49.291636 49.291636 0 0 1-24.669091-42.682182V377.483636c0-17.594182 9.448727-33.885091 24.669091-42.682181l313.530182-180.968728c15.220364-8.843636 33.978182-8.843636 49.24509 0zM512 207.918545L208.337455 383.208727v350.626909L512 909.125818l303.616-175.290182V383.208727L512 207.918545z" fill="#2B3D4F" p-id="19106"></path><path d="M512 407.272727a151.272727 151.272727 0 1 1 0 302.545455 151.272727 151.272727 0 0 1 0-302.545455z m0 55.854546a95.418182 95.418182 0 1 0 0 190.836363 95.418182 95.418182 0 0 0 0-190.836363z" fill="#FF724F" p-id="19107"></path><path d="M512 65.163636a121.018182 121.018182 0 1 0 0 242.036364 121.018182 121.018182 0 0 0 0-242.036364z" fill="#2B3D4F" p-id="19108"></path><path d="M512 121.018182a65.163636 65.163636 0 1 1 0 130.327273 65.163636 65.163636 0 0 1 0-130.327273z" fill="#FFFFFF" p-id="19109"></path><path d="M837.818182 623.709091a121.018182 121.018182 0 1 0 0 242.036364 121.018182 121.018182 0 0 0 0-242.036364z" fill="#2B3D4F" p-id="19110"></path><path d="M837.818182 679.563636a65.163636 65.163636 0 1 1 0 130.327273 65.163636 65.163636 0 0 1 0-130.327273z" fill="#FFFFFF" p-id="19111"></path><path d="M186.181818 623.709091a121.018182 121.018182 0 1 0 0 242.036364 121.018182 121.018182 0 0 0 0-242.036364z" fill="#2B3D4F" p-id="19112"></path><path d="M186.181818 679.563636a65.163636 65.163636 0 1 1 0 130.327273 65.163636 65.163636 0 0 1 0-130.327273z" fill="#FFFFFF" p-id="19113"></path></svg>