<?xml version="1.0" standalone="no"?><!DOCTYPE svg PUBLIC "-//W3C//DTD SVG 1.1//EN" "http://www.w3.org/Graphics/SVG/1.1/DTD/svg11.dtd"><svg t="1748423141208" class="icon" viewBox="0 0 1359 1024" version="1.1" xmlns="http://www.w3.org/2000/svg" p-id="5327" xmlns:xlink="http://www.w3.org/1999/xlink" width="265.4296875" height="200"><path d="M890.406479 241.621746l-1.443044-1.443044a15.416524 15.416524 0 0 0-21.693767 0l-68.969504 68.520557-64.087204 63.662308a15.416524 15.416524 0 0 1-21.68575 0l-1.443045-1.435028a15.176017 15.176017 0 0 1 0-21.541446l68.59271-68.183846c-47.051263-60.575796-119.740615-96.026586-196.759101-95.962451-137.377824 0-248.724731 110.649436-248.724731 247.105315a245.477882 245.477882 0 0 0 11.239712 73.619314l-60.351322 59.934443a15.168 15.168 0 0 0 0 21.541445l1.443044 1.443045a15.416524 15.416524 0 0 0 21.68575 0l25.718258-25.589987 0.144304-0.160338 114.962535-114.14481a15.384456 15.384456 0 0 1 21.68575 0l1.443045 1.435027a15.168 15.168 0 0 1 0 21.541446L375.223605 568.262857a249.245831 249.245831 0 0 0 105.823254 89.54892h203.773899c86.574645-38.657555 146.861833-125.063846 146.861832-225.467666a244.916698 244.916698 0 0 0-18.150291-92.731635l76.906248-76.401182a15.176017 15.176017 0 0 0-0.032068-21.589548z m-175.602466 51.604871a11.223678 11.223678 0 0 1 10.373886 6.878511c1.73967 4.168795 0.785657 8.962909-2.421108 12.145624-3.206765 3.190731-8.040964 4.144744-12.23381 2.421107a11.143509 11.143509 0 0 1-6.926613-10.293716c0-6.156989 5.018588-11.143509 11.207645-11.14351zM590.525825 254.160199l3.591577-7.279358 3.591577 7.279358 8.081049 1.162452-5.804245 5.700025 1.386925 8.02493-7.223238-3.767949-7.183155 3.767949 1.37891-8.016913-5.84433-5.667957 8.02493-1.202537z m8.738435 99.289469l7.535899-15.151966 7.535898 15.151966 16.843535 2.437142-12.169675 11.808913 2.886089 16.675179-15.071797-7.880625-15.071796 7.872609 2.878072-16.67518-12.201742-11.800896 16.835517-2.437142zM516.970647 225.644038c11.58444 0 22.038494 6.926613 26.471847 17.55704a28.323754 28.323754 0 0 1-6.205091 31.025454 28.796752 28.796752 0 0 1-31.225877 6.173023 28.460042 28.460042 0 0 1-17.68531-26.295475c0-15.71315 12.827061-28.460042 28.644431-28.460042z m-56.006156 143.550848v19.785742c0 5.291163-4.313099 9.572194-9.628313 9.572194a9.596245 9.596245 0 0 1-9.636329-9.572194v-19.785742h-19.914013a9.596245 9.596245 0 0 1-9.636329-9.564178c0-5.283146 4.313099-9.564177 9.636329-9.564177h19.914013v-19.785742c0-5.291163 4.313099-9.564177 9.636329-9.564177 5.315213 0 9.620296 4.281032 9.628313 9.564177v19.785742h19.922029c5.315213 0 9.620296 4.281032 9.620296 9.564177 0 5.291163-4.305082 9.564177-9.620296 9.564178h-19.922029z m190.297468 288.552756l-0.897894-1.258655a118.874789 118.874789 0 0 0 47.572363-65.979196l-33.871458-33.671035a13.845209 13.845209 0 0 0-19.513167 0L561.071686 639.765706l-54.370705-54.009944a10.526207 10.526207 0 0 0-14.847323 0l-19.000085 18.863796a119.035127 119.035127 0 0 0 42.633945 51.821327l-0.897895 1.258655a120.069309 120.069309 0 0 1-52.671119-99.2093c0-66.299872 54.298553-120.229647 121.031338-120.229647 66.740802 0 121.039355 53.929775 121.039355 120.229647 0 39.699754-19.721606 76.842113-52.719221 99.249385zM762.488613 438.581269h-14.871374v14.751121c0 3.944321-3.214782 7.135053-7.183154 7.135052a7.159103 7.159103 0 0 1-7.183155-7.135052v-14.751121H718.39559a7.159103 7.159103 0 0 1-7.183154-7.135052c0-3.944321 3.214782-7.135053 7.183154-7.135053h14.847323v-14.75112c0-3.944321 3.214782-7.135053 7.183155-7.135053s7.183154 3.190731 7.183154 7.135053v14.75112h14.847323c3.960355 0 7.175137 3.190731 7.175137 7.135053 0 3.936304-3.206765 7.135053-7.175137 7.135052h0.032068z" fill="#6EADEC" p-id="5328"></path><path d="M738.493992 686.696715c0.320677-0.024051 0.593252 1.066249 0.593251 2.405074v0.032068c0 1.346841-0.264558 2.429125-0.577218 2.429125h-90.831626c-0.320677 0-0.577218-1.082283-0.577218-2.429125 0-1.346841 0.264558-2.437142 0.577218-2.437142h90.815593z m-96.732075 0c0.088186 0.801691 0.128271 1.603383 0.112237 2.405074 0.024051 0.841776 0 1.651484-0.080169 2.461193h-12.482334a37.16641 37.16641 0 0 1 0-4.866267h12.450266z m39.948278-9.45194c0.657387 0 1.282706 0.256541 1.739671 0.721522 0.464981 0.448947 0.721522 1.066249 0.721522 1.715619v0.032068c0 0.641353-0.256541 1.266672-0.721522 1.723636a2.477226 2.477226 0 0 1-1.739671 0.713506H296.553635a2.445159 2.445159 0 1 1 0-4.906351h385.15656z m18.070123 0.040084c0.080169 0.801691 0.10422 1.595366 0.080169 2.397057v0.032068c0.032068 0.809708 0 1.627433-0.080169 2.437142h-12.450266a37.182443 37.182443 0 0 1 0-4.866267h12.450266z m-5.154875-23.545674a2.421108 2.421108 0 1 1 1.73967 4.152761 2.477226 2.477226 0 0 1-1.73967 0.713506H309.4769a2.477226 2.477226 0 0 1-1.739671-0.721522 2.421108 2.421108 0 0 1-0.721522-1.71562c0-1.338825 1.106334-2.429125 2.461193-2.429125h385.148543z m114.786163 0c0.320677 0 0.577218 1.082283 0.577217 2.429125 0 1.346841-0.256541 2.437142-0.577217 2.437142h-90.831627c-0.31266 0-0.569201-1.0903-0.569201-2.437142 0-1.346841 0.256541-2.429125 0.577218-2.429125h90.831626z m-96.716041 0l0.080169 1.210554v1.218571c0.032068 0.809708 0 1.627433-0.080169 2.437142h-12.450266a37.16641 37.16641 0 0 1 0-4.866267h12.450266z" fill="#7AB4F0" p-id="5329"></path><path d="M818.446667 139.734797h-29.518275v-29.16553a6.734207 6.734207 0 0 0-6.766274-6.349396 6.734207 6.734207 0 0 0-6.766275 6.349396v29.16553h-29.550342a6.790325 6.790325 0 0 0-6.156989 3.238833 6.62197 6.62197 0 0 0 0 6.886528c1.290723 2.116465 3.655712 3.367104 6.156989 3.238833h29.550342v29.173547a6.734207 6.734207 0 0 0 6.766275 6.341378 6.734207 6.734207 0 0 0 6.766274-6.341378v-29.16553h29.526292a6.790325 6.790325 0 0 0 6.156989-3.238833 6.62197 6.62197 0 0 0 0-6.894545 6.790325 6.790325 0 0 0-6.156989-3.230816v-0.008017zM361.851393 266.850972h-13.067568v-12.915247a2.982292 2.982292 0 0 0-3.006343-2.966258 2.982292 2.982292 0 0 0-2.998325 2.966258v12.915247h-13.083602a2.974275 2.974275 0 0 0-2.990309 2.966258c0 1.627433 1.338825 2.950224 2.990309 2.950224h13.083602v12.915247c0 1.643467 1.346841 2.966258 2.998325 2.966258a2.982292 2.982292 0 0 0 2.998326-2.966258v-12.90723h13.075585a2.974275 2.974275 0 0 0 2.998326-2.966258 2.974275 2.974275 0 0 0-2.998326-2.958241zM887.70478 514.854181l10.582325 21.188702 23.657911 3.391154-17.132144 16.490791 4.048542 23.289132-21.164651-10.991188-21.164651 10.991188 4.040524-23.281115-17.132143-16.490791 23.657911-3.391154zM487.316085 127.324615l4.513522 9.083163 10.149412 1.459078-7.35151 7.086951 1.731654 9.997091-9.002994-4.75403-9.083162 4.729979 1.731653-9.997091-7.35151-7.086951 10.157429-1.459078z" fill="#32C5FF" p-id="5330"></path><path d="M631.484234 507.149928c-20.507264 0-36.565141-5.675975-36.565141-12.90723 0-0.360761 0.288609-0.641353 0.64937-0.641353 0.360761 0 0.657387 0.280592 0.657387 0.641353 0 6.301294 16.138046 11.58444 35.258384 11.584439s35.258384-5.347281 35.258385-11.584439a0.657387 0.657387 0 0 1 0.657386-0.577218c0.328693 0 0.609285 0.248524 0.64937 0.577218 0.040085 7.231256-16.057877 12.90723-36.565141 12.90723zM649.570391 513.964304a0.64937 0.64937 0 0 1-0.641354-0.641353v-6.59792a0.641353 0.641353 0 0 1 0.64937-0.641353 0.641353 0.641353 0 0 1 0.64937 0.641353v6.59792c0 0.352744-0.296626 0.641353-0.657386 0.641353z m-18.839746 1.924059a0.64937 0.64937 0 0 1-0.64937-0.641353v-6.589902a0.641353 0.641353 0 0 1 0.657386-0.641354 0.641353 0.641353 0 0 1 0.64937 0.641354v6.597919c0 0.344727-0.288609 0.633336-0.641353 0.641353h-0.016033z m-18.839746-1.924059a0.64937 0.64937 0 0 1-0.64937-0.641353v-6.59792a0.657387 0.657387 0 0 1 0.64937-0.5692c0.33671 0 0.617302 0.240507 0.657386 0.5692v6.59792c-0.008017 0.352744-0.296626 0.641353-0.64937 0.641353h-0.008016z m60.519677 2.661615l-9.500042-2.837987 2.886089 9.363755s0.641353 3.254867 1.924059 4.497488a6.62197 6.62197 0 0 0 6.333361 1.667518 6.51775 6.51775 0 0 0 4.633776-4.585675 6.413531 6.413531 0 0 0-1.707602-6.245175c-1.266672-1.202537-4.569641-1.84389-4.569641-1.84389v-0.016034z m-125.737266-7.327458c-20.49123 0-36.54109-5.651924-36.54109-12.875163a0.641353 0.641353 0 0 1 0.64937-0.641353 0.641353 0.641353 0 0 1 0.657386 0.641353c0 6.28526 16.130029 11.560389 35.234334 11.560389 19.104304 0 35.234333-5.331247 35.234333-11.560389a0.657387 0.657387 0 0 1 0.64937-0.569201c0.33671 0 0.617302 0.240507 0.657387 0.569201 0 7.215222-16.04986 12.875163-36.54109 12.875163zM525.909505 516.088786c-0.360761 0-0.641353-0.248524-0.64937-0.561184v-5.692008c0-0.304643 0.288609-0.553167 0.64937-0.553167 0.360761 0 0.64937 0.248524 0.64937 0.561184v5.692008c0 0.304643-0.296626 0.553167-0.657387 0.553167z m18.799661 1.667518c-0.352744-0.008017-0.641353-0.256541-0.641353-0.561184v-5.692008c0-0.304643 0.288609-0.553167 0.641353-0.553167 0.368778 0 0.657387 0.248524 0.657387 0.561184v5.692008c0 0.304643-0.296626 0.553167-0.657387 0.553167z m18.775611-1.667518c-0.360761 0-0.641353-0.248524-0.64937-0.561184v-5.692008c0.040085-0.272575 0.320677-0.489032 0.64937-0.489032 0.33671 0 0.617302 0.216457 0.64937 0.497049v5.692008c0 0.304643-0.296626 0.553167-0.64937 0.553167z m-60.375373 2.308871l9.475991-2.453175-2.878072 8.081048s-0.641353 2.80592-1.916042 3.888203a7.37556 7.37556 0 0 1-9.259535-0.024051 5.026605 5.026605 0 0 1 0.024051-7.896659c1.258655-1.042199 4.553607-1.603383 4.553607-1.603383z" fill="#7AB4F0" p-id="5331"></path><path d="M505.089581 725.322203l1.988195 5.852347a480.870486 480.870486 0 0 1-30.496338 2.565412v11.223678h31.899297v5.315214h-12.346046v18.615272h-6.052769v-18.599238h-13.901328c-1.066249 8.065015-3.888203 14.767154-8.46586 20.106418l1.130385-1.418994h27.778604v37.350799h-6.38948v-3.928288h-47.860972v3.864153h-6.397496v-37.278647h30.263847c-1.018148-0.954013-2.140516-1.956127-3.367104-3.014359 5.186943-5.491586 7.776406-13.284025 7.776406-23.377319l-0.024051-14.181919a217.162144 217.162144 0 0 0 34.472727-3.094529z m59.717986 44.461801v23.297149c0 4.665843 2.100431 6.998765 6.301294 6.998766h11.848998c3.912254 0 6.124922-1.747687 6.646021-5.227028 0.456964-3.399171 0.801691-7.776406 1.034182-13.147737 2.1806 0.825742 4.601708 1.683552 7.255306 2.565412-0.577218 5.852347-1.0903 10.245615-1.555281 13.203856-0.745573 5.908465-4.834199 8.858689-12.265877 8.858689h-14.903442c-7.567966 0-11.351949-4.064575-11.351949-12.193725V769.784004h6.990748z m23.938503-44.461801v6.918596h-33.791289c-0.320677 6.926613-1.058233 13.821158-2.220685 20.651569h42.59386v6.918596H551.24295c-4.409302 20.010215-16.546909 35.514925-36.412819 46.522147a57.208692 57.208692 0 0 0-4.697911-6.341378c17.300499-8.818604 28.564262-22.2309 33.799306-40.220854h-32.548668v-6.926613h34.119983c1.282706-6.790325 2.012245-13.684871 2.1806-20.603467H517.972761v-6.918596h70.773309z m96.908447 0v81.010908h-6.886529v-4.12871H611.530137v4.104659h-6.886528V725.322203h81.010908z m71.118037-6.750241v25.870579h23.401369v6.710156H717.674068c0 3.800017-0.080169 9.043078-0.264558 15.737201h43.122976v38.93013h-7.519865V773.632122h-36.116194c-1.138402 12.947315-6.012685 23.826266-14.582765 32.709006a54.338638 54.338638 0 0 0-5.507619-6.38948c5.387366-5.780194 8.978943-11.592456 10.758697-17.436786 1.787772-5.251078 2.677649-13.652803 2.677649-25.221209v-37.102274h7.431679v24.227111h31.626723v-25.838511h7.463746zM490.234241 788.222904h-47.909073l0.016034 8.714385h47.893039V788.222904z m141.017503-56.687593h-19.721607l0.008017 64.463999h67.229834V731.543328H637.985951l0.641353 0.304643c-0.713505 1.082283-1.467095 2.148533-2.260769 3.206765l-1.218571 1.587349h30.833048v5.283145c-4.665843 5.611839-10.18148 10.421987-16.330452 14.254072 7.327459 2.373006 14.871374 4.02449 22.511492 4.930402a50.506553 50.506553 0 0 0-2.886089 6.678088 161.139955 161.139955 0 0 1-26.135137-8.1532c-7.111002 3.254867-16.546909 6.437581-28.299703 9.540126a37.94405 37.94405 0 0 0-2.966258-5.683991 144.593046 144.593046 0 0 0 25.317412-7.327459 50.250012 50.250012 0 0 1-10.582326-9.900888 115.603888 115.603888 0 0 1-9.019027 7.904677 145.346636 145.346636 0 0 0-4.264998-4.353184 78.204988 78.204988 0 0 0 19.561268-20.683636l-1.63545 2.405074z m-4.521539 46.914976a721.522186 721.522186 0 0 1 42.064743 6.878511l-2.356972 6.798343a510.693403 510.693403 0 0 0-41.543644-7.511848z m-136.495964-4.048541h-47.909073l0.016034 8.626198h47.893039v-8.626198z m145.587143-7.664169c8.578097 1.314774 17.581091 2.80592 27.025015 4.473437l-1.875958 6.253193a486.265869 486.265869 0 0 0-26.936828-4.737996z m-196.65488-48.181649l6.124922 2.028279a162.101985 162.101985 0 0 1-3.463307 6.950664h23.994621v5.283146H439.086335c-1.84389 3.399171-3.735882 6.718173-5.692008 9.940972h11.015238v-6.509733h6.221125v6.477666h14.302173v5.283145H450.63069v6.557835c4.946435-0.272575 9.628313-0.577218 14.045632-0.897894-0.240507 2.05233-0.416879 3.960355-0.537133 5.724076-4.409302 0.200423-8.914807 0.432913-13.508499 0.697472v7.046866h-6.221125v-6.694122c-6.894545 0.432913-14.005547 0.929962-21.324989 1.491146l-0.689454-5.916482 4.609725-0.176372c4.577657-0.184389 8.978943-0.392829 13.21989-0.609286l4.176811-0.224473v-6.910579H426.179105v-5.387366c2.212668-3.190731 4.264998-6.4937 6.132938-9.884854h-9.32367v-5.283146h12.041404c1.386926-2.821953 2.765835-5.812262 4.12871-8.978943z m218.204343 23.617827h-26.872693a2.878072 2.878072 0 0 1-0.272575 0.312659c3.463306 4.489471 7.81649 8.193285 12.762926 10.870935a50.51457 50.51457 0 0 0 14.382342-11.183594z" fill="#6EADEC" p-id="5332"></path><path d="M499.277319 535.666088l5.307197-3.928287 0.88186 5.916482s0.54515 1.972161 0.096203 2.998325c-0.98608 1.940093-3.599594 2.886089-5.932516 2.132499-2.324905-0.745573-3.551493-2.918156-2.765835-4.922385 0.464981-1.034182 2.413091-2.196634 2.413091-2.196634z m171.401604-3.24685a3.567526 3.567526 0 0 1 1.330808 3.848119 4.353184 4.353184 0 0 1-3.35107 2.846004 5.227027 5.227027 0 0 1-4.553607-1.122368c-0.88186-0.745573-1.362875-2.741784-1.362875-2.741784l-2.05233-5.708043 6.750241 1.723637s2.356972 0.400846 3.238833 1.154435z" fill="#7AB4F0" p-id="5333"></path></svg>