<?xml version="1.0" standalone="no"?><!DOCTYPE svg PUBLIC "-//W3C//DTD SVG 1.1//EN" "http://www.w3.org/Graphics/SVG/1.1/DTD/svg11.dtd"><svg t="1749716923404" class="icon" viewBox="0 0 1024 1024" version="1.1" xmlns="http://www.w3.org/2000/svg" p-id="9383" xmlns:xlink="http://www.w3.org/1999/xlink" width="200" height="200"><path d="M799.008078 684.737284a248.508233 248.508233 0 0 1-33.175389 38.090261h71.675222a297.930005 297.930005 0 0 1-38.499833-38.090261z" fill="#5CCBB2" p-id="9384"></path><path d="M773.409784 534.833678a227.346977 227.346977 0 1 0 227.312846 227.346977 227.585894 227.585894 0 0 0-227.312846-227.346977z m-55.940804 213.933471v107.512832h-18.499033v-94.747816a202.158256 202.158256 0 0 1-20.239718 49.012199 114.577961 114.577961 0 0 0-9.454303-20.239718 230.896607 230.896607 0 0 0 28.431172-74.781148h-25.256983v-18.976868h26.690487v-39.967469h18.499033v39.967469h20.069062v18.976868h-20.069062v7.918406c5.358576 7.611226 20.854076 31.776015 24.164789 38.090261l-11.843477 13.652423c-2.559829-6.211853-7.74775-16.485301-12.491967-26.417439z m147.480301 97.683088h-128.196253v-17.850544h74.747017a453.94307 453.94307 0 0 0 30.717952-74.473968l17.850543 4.437037a617.772149 617.772149 0 0 1-32.117325 70.036931h36.861542zM747.640835 762.35131l15.632025-3.822679a277.519632 277.519632 0 0 1 13.652423 51.196587l-16.314646 4.437038a330.115592 330.115592 0 0 0-12.969802-51.810946z m41.571629-6.007066l15.632024-2.218519a391.517366 391.517366 0 0 1 9.488435 50.923538l-16.621826 2.696354a456.5029 456.5029 0 0 0-8.498633-51.401373z m72.869809-15.495501a219.599227 219.599227 0 0 1-24.335445-17.850543v17.065529h-74.303313v-14.881141a279.123792 279.123792 0 0 1-23.072595 18.464902 96.317845 96.317845 0 0 0-12.218919-16.417039 192.29438 192.29438 0 0 0 67.511233-72.562629l17.406839 6.348377c-1.262849 2.662223-2.867009 5.187921-4.129858 7.918405a229.019399 229.019399 0 0 0 63.244851 53.107926 86.45397 86.45397 0 0 0-10.102793 18.806213z" fill="#5CCBB2" p-id="9385"></path><path d="M1016.013344 966.284381l-80.071462-80.071462a27.373108 27.373108 0 1 0-38.70462 38.738751l80.037331 80.037331a27.304846 27.304846 0 0 0 19.454703 7.918405 28.021599 28.021599 0 0 0 19.454703-7.918405 27.304846 27.304846 0 0 0-0.170655-38.70462z" fill="#5CCBB2" p-id="9386"></path><path d="M927.81869 24.5061A83.621092 83.621092 0 0 0 868.669567 0h-785.014333a83.621092 83.621092 0 0 0-83.621092 83.689354v856.689554a83.621092 83.621092 0 0 0 83.621092 83.621092h589.204453a278.714219 278.714219 0 0 1-138.469702-407.285914h-103.075795a31.776015 31.776015 0 0 1-33.584961-34.131058 31.776015 31.776015 0 0 1 33.55083-33.926272h160.586628a279.874675 279.874675 0 0 1 360.253316-2.389174V83.689354a83.689354 83.689354 0 0 0-24.301313-59.183254zM277.895085 612.34531a29.762283 29.762283 0 0 1-29.762282 29.728152H188.608237a29.728151 29.728151 0 0 1-29.728151-29.728152v-59.558696a29.728151 29.728151 0 0 1 29.728151-29.728151h59.524566a29.762283 29.762283 0 0 1 29.762282 29.728151z m27.031798-298.783281l-84.167189 84.133058a19.796014 19.796014 0 0 1-28.021598 0l-28.089861-28.021599a19.864276 19.864276 0 1 1 28.089861-28.08986l13.959602 14.061996 70.173455-70.105193a19.864276 19.864276 0 0 1 28.05573 28.055729z m487.732818 30.922739a20.0008 20.0008 0 0 1-1.774815 7.986667 30.95687 30.95687 0 0 1-31.878408 23.55043h-327.658157a30.717952 30.717952 0 0 1-31.810146-23.55043 19.488834 19.488834 0 0 1-1.774815-7.986667c0-0.409573 0.204786-0.785014 0.204787-1.194587s-0.204786-0.853276-0.204787-1.365243a31.776015 31.776015 0 0 1 33.584961-34.131058h327.658157a31.810146 31.810146 0 0 1 33.619092 34.131058c0 0.477835-0.204786 0.853276-0.238918 1.365243a12.014132 12.014132 0 0 1 0.273049 1.194587z" fill="#5CCBB2" p-id="9387"></path></svg>