<?xml version="1.0" standalone="no"?><!DOCTYPE svg PUBLIC "-//W3C//DTD SVG 1.1//EN" "http://www.w3.org/Graphics/SVG/1.1/DTD/svg11.dtd"><svg t="1749717017732" class="icon" viewBox="0 0 1024 1024" version="1.1" xmlns="http://www.w3.org/2000/svg" p-id="11385" xmlns:xlink="http://www.w3.org/1999/xlink" width="200" height="200"><path d="M0.000358 0.000358m255.999911 0l511.999821 0q255.99991 0 255.99991 255.999911l0 511.999821q0 255.99991-255.99991 255.99991l-511.999821 0q-255.99991 0-255.999911-255.99991l0-511.999821q0-255.99991 255.999911-255.999911Z" fill="#00AAA6" p-id="11386"></path><path d="M913.556519 45.378903A204.851128 204.851128 0 0 1 921.600036 102.400323v614.399785c0 113.10588-91.694048 204.799928-204.799928 204.799928H102.400323a204.851128 204.851128 0 0 1-57.02142-8.043517A254.822311 254.822311 0 0 1 0.000358 768.00009V256.000269C0.000358 114.616638 114.616638 0.000358 256.000269 0.000358h511.999821a254.822311 254.822311 0 0 1 145.556429 45.378545z" fill="#19B2AF" p-id="11387"></path><path d="M768.00009 0.000358v639.999776c0 70.691815-57.30814 127.999955-127.999956 127.999956H0.000358V256.000269C0.000358 114.616638 114.616638 0.000358 256.000269 0.000358h511.999821z" fill="#30BAB7" p-id="11388"></path><path d="M563.200161 0.000358v460.799839c0 56.5555-45.844464 102.399964-102.399964 102.399964H0.000358V256.000269C0.000358 114.616638 114.616638 0.000358 256.000269 0.000358h307.199892z" fill="#45C1BE" p-id="11389"></path><path d="M307.200251 0.000358v204.799929c0 56.5555-45.844464 102.399964-102.399964 102.399964H0.000358V256.000269C0.000358 114.616638 114.616638 0.000358 256.000269 0.000358h51.199982z" fill="#58C7C5" p-id="11390"></path><path d="M869.867574 270.121224a71.198695 71.198695 0 0 0-50.718702-21.145593h-93.695968v-23.019512a72.017895 72.017895 0 0 0-20.869112-50.979822A72.212455 72.212455 0 0 0 653.76269 153.600305H370.278629a71.413735 71.413735 0 0 0-50.677742 21.186552 72.642535 72.642535 0 0 0-21.053433 51.169262v22.937592H204.892447a70.947815 70.947815 0 0 0-50.677743 21.186553A71.761895 71.761895 0 0 0 133.120312 321.331446v476.748633a72.258535 72.258535 0 0 0 11.996156 40.140786 72.376295 72.376295 0 0 0 32.261108 26.762231A71.219175 71.219175 0 0 0 204.810527 870.400054h614.302505a70.604775 70.604775 0 0 0 50.672622-21.186553c13.639675-13.695995 21.094393-31.856629 21.094393-51.210222v-476.671833c0-19.353593-7.454717-37.514227-21.012473-51.210222zM347.433197 225.915159c0-12.661756 10.204156-22.937592 22.763512-22.937592h283.489181c12.600316 0 22.804472 10.316796 22.804472 22.978552v22.937592H347.392237v-22.937592l0.04096-0.04096z m494.525267 572.08812a23.111672 23.111672 0 0 1-13.916155 21.263353 22.579192 22.579192 0 0 1-8.693757 1.832959H204.892447a22.645752 22.645752 0 0 1-16.112635-6.650878 23.075832 23.075832 0 0 1-6.737917-16.204794V321.331446a23.116792 23.116792 0 0 1 14.095355-21.247993 22.758392 22.758392 0 0 1 8.755197-1.771519H819.148872a22.860792 22.860792 0 0 1 16.138234 6.645758 22.753272 22.753272 0 0 1 6.712318 16.097274v476.948313h-0.04096z m-372.47987-453.258081a151.265227 151.265227 0 0 0-67.737576 17.126394c-12.764156 6.369278-14.755835 23.495672-4.270079 34.247668l72.007655 72.714214-25.395191 25.681911-71.971815-72.755174a19.292153 19.292153 0 0 0-14.832635-6.410238c-8.447997 0-14.750715 4.223999-19.056633 12.902396-27.51487 55.633901-19.061753 126.238676 27.50975 173.265859 29.70623 29.98783 65.628137 42.772465 103.746524 42.772465 16.906234 0 33.848308-2.150399 48.645103-8.565757l120.606678 117.754839 14.796795 14.935034a20.495353 20.495353 0 0 0 22.922232 4.741119 20.500473 20.500473 0 0 0 6.778877-4.782079l59.20766-59.852779a20.684793 20.684793 0 0 0 4.705278-23.137271 20.607993 20.607993 0 0 0-4.705278-6.845438l-14.791675-14.975995-120.611798-117.713879c19.061753-53.483501 6.302718-113.37212-33.889268-156.144585-29.62431-29.98271-67.701736-44.953584-103.664604-44.953584z m97.367006 186.168255c-6.338558 14.935035-2.155519 32.056309 10.603516 44.922864l120.611798 117.713879-29.66527 29.905909-120.611797-117.713879a41.871345 41.871345 0 0 0-29.66015-12.902395c-4.270079 0-8.453117 0-14.796795 2.191359a97.756126 97.756126 0 0 1-36.003827 6.369278c-27.50975 0-55.019501-10.711036-74.117094-32.015349-25.400311-25.687031-35.967987-59.934699-29.66527-94.141407l48.680943 49.218543c8.453117 8.524797 19.056633 12.825596 29.66527 12.825595 10.603516 0 21.212153-4.300798 29.665269-12.861435l25.395191-25.651191c16.947194-17.121274 16.947194-44.953584 0-59.929579l-48.680942-49.100783c6.338558-2.150399 12.759036-2.150399 19.056633-2.150399 27.51487 0 55.065581 10.675196 74.163174 32.020469 29.54239 27.87327 40.151026 70.640615 25.359351 111.339481v-0.04096z" fill="#FFFFFF" p-id="11391"></path></svg>