<?xml version="1.0" standalone="no"?><!DOCTYPE svg PUBLIC "-//W3C//DTD SVG 1.1//EN" "http://www.w3.org/Graphics/SVG/1.1/DTD/svg11.dtd"><svg t="1749718022482" class="icon" viewBox="0 0 1024 1024" version="1.1" xmlns="http://www.w3.org/2000/svg" p-id="29905" xmlns:xlink="http://www.w3.org/1999/xlink" width="200" height="200"><path d="M0 0m200.784314 0l622.431372 0q200.784314 0 200.784314 200.784314l0 622.431372q0 200.784314-200.784314 200.784314l-622.431372 0q-200.784314 0-200.784314-200.784314l0-622.431372q0-200.784314 200.784314-200.784314Z" fill="#07B9B9" p-id="29906"></path><path d="M235.921569 180.705882C205.422431 180.705882 180.705882 206.185412 180.705882 237.588078v568.902275C180.705882 837.872941 205.422431 863.372549 235.921569 863.372549H602.352941a187.693176 187.693176 0 0 1-37.988392-113.784471c0-25.198431 4.899137-49.192157 13.753726-71.097725h-6.846746c-11.444706 0-20.720941-9.557333-20.720941-21.343373s9.276235-21.323294 20.720941-21.323294H602.352941c32.848314-43.309176 79.952314-63.588392 137.416784-63.588392 41.642667 0 73.08549 7.087686 103.524393 31.603451v-366.230588C843.294118 206.165333 818.577569 180.705882 788.078431 180.705882h-552.156862z m324.387137 140.54902h179.461019c11.444706 0 20.700863 9.557333 20.700863 21.343373 0 11.765961-9.276235 21.323294-20.700863 21.323294h-179.461019c-11.444706 0-20.700863-9.557333-20.700863-21.343373 0-11.765961 9.276235-21.323294 20.700863-21.323294z m-20.700863 161.892392c0-11.786039 9.276235-21.343373 20.700863-21.343372h179.461019c11.444706 0 20.700863 9.557333 20.700863 21.343372 0 11.765961-9.276235 21.323294-20.700863 21.323294h-179.461019c-11.444706 0-20.700863-9.557333-20.700863-21.343372z m-82.321568 125.952L333.301961 736.838275l-69.772549-61.620706 26.945255-32.38651 40.658823 35.900235 96.878432-99.789804 29.274353 30.157804zM803.137255 702.745098a90.49349 90.49349 0 0 1-20.259137-20.078431A122.679216 122.679216 0 0 1 762.980392 702.745098h40.156863z" fill="#FFFFFF" p-id="29907"></path><path d="M883.45098 742.901961a140.54902 140.54902 0 1 1-281.098039 0 140.54902 140.54902 0 0 1 281.098039 0z m-224.878431-55.155451v19.877647h21.644549c-5.50149 22.226824-14.356078 42.104471-26.563765 59.432157l8.854589 22.809098c7.087686-12.589176 13.191529-26.36298 18.291451-40.919843v83.827451h20.279215v-96.035138c3.33302 5.903059 7.268392 13.191529 11.605334 21.463843l11.605333-17.52847a371.33051 371.33051 0 0 0-23.210667-25.579922v-7.469176h17.909961v-19.877647h-17.909961V651.545098h-20.279215v36.201412H658.572549z m87.742745 27.346823v10.24h61.399843v-9.838431c5.903059 5.702275 12.408471 11.223843 19.877647 16.323765l11.424628-17.307608c-25.198431-17.909961-42.907608-38.751373-53.12753-62.564392H766.996078c-12.207686 25.760627-29.515294 46.622118-51.942902 62.564392l11.203765 17.307608c6.886902-4.718431 13.57302-10.420706 20.078432-16.725334z m-26.74447 93.465098v19.877647h114.527372v-19.877647h-26.965333c7.087686-20.459922 13.191529-43.670588 18.291451-69.652078l-19.476079-4.919216c-5.50149 29.31451-11.806118 54.111373-19.07451 74.571294h-67.302901z m26.764549-69.270588l-17.709177 5.923137c5.12 17.909961 9.637647 36.60298 13.171451 56.079059l17.909961-4.718431c-3.935373-21.644549-8.252235-40.739137-13.372235-57.263686z m29.113725-7.067608l-17.508392 5.903059c4.718431 17.307608 8.653804 35.217569 11.806118 54.111373l18.693019-4.919216a590.366118 590.366118 0 0 0-12.990745-55.095216zM441.72549 381.490196q0 3.955451-0.401568 7.870745-0.38149 3.935373-1.144471 7.790432-0.76298 3.875137-1.907451 7.649882t-2.650353 7.42902q-1.525961 3.634196-3.373176 7.127843-1.867294 3.473569-4.055844 6.746353-2.208627 3.292863-4.698352 6.344784-2.509804 3.031843-5.300706 5.822745-2.790902 2.81098-5.822745 5.300706-3.051922 2.509804-6.344785 4.698353-3.272784 2.188549-6.746353 4.055843-3.493647 1.847216-7.127843 3.373176-3.654275 1.505882-7.429019 2.650353-3.774745 1.144471-7.629804 1.907451-3.875137 0.76298-7.81051 1.164549Q365.367216 461.803922 361.411765 461.803922t-7.870745-0.401569q-3.935373-0.38149-7.790432-1.144471-3.875137-0.76298-7.649882-1.907451t-7.42902-2.650353q-3.634196-1.525961-7.127843-3.373176-3.473569-1.867294-6.746353-4.055843-3.292863-2.208627-6.344784-4.698353-3.031843-2.509804-5.822745-5.300706-2.81098-2.790902-5.300706-5.822745-2.509804-3.051922-4.698353-6.344784-2.208627-3.272784-4.055843-6.746353-1.847216-3.493647-3.373177-7.127843-1.505882-3.654275-2.650353-7.42902-1.144471-3.774745-1.907451-7.629804-0.76298-3.875137-1.164549-7.81051Q281.098039 385.445647 281.098039 381.490196t0.401569-7.870745q0.38149-3.935373 1.14447-7.790431 0.76298-3.875137 1.907451-7.649883t2.650353-7.429019q1.525961-3.634196 3.373177-7.127843 1.867294-3.473569 4.055843-6.746353 2.208627-3.292863 4.698353-6.344785 2.509804-3.031843 5.300706-5.822745 2.790902-2.81098 5.822745-5.300706 3.051922-2.509804 6.344784-4.698353 3.272784-2.208627 6.746353-4.055843 3.493647-1.847216 7.127843-3.373176 3.654275-1.505882 7.42902-2.650353 3.774745-1.144471 7.629804-1.907451 3.875137-0.76298 7.81051-1.164549Q357.456314 301.176471 361.411765 301.176471t7.870745 0.401568q3.935373 0.38149 7.790431 1.144471 3.875137 0.76298 7.649883 1.907451t7.429019 2.650353q3.634196 1.525961 7.127843 3.373176 3.473569 1.867294 6.746353 4.055843 3.292863 2.208627 6.344785 4.698353 3.031843 2.509804 5.822745 5.300706 2.81098 2.790902 5.300706 5.822745 2.509804 3.051922 4.698352 6.344785 2.188549 3.272784 4.055844 6.746353 1.847216 3.493647 3.373176 7.127843 1.505882 3.654275 2.650353 7.429019 1.144471 3.774745 1.907451 7.629804 0.76298 3.875137 1.164549 7.81051 0.38149 3.915294 0.38149 7.870745z" fill="#FFFFFF" p-id="29908"></path><path d="M432.409098 310.492863Q402.974118 281.098039 361.411765 281.098039q-41.582431 0-70.997334 29.394824Q261.019608 339.927843 261.019608 381.490196q0 41.582431 29.394823 70.997333Q319.849412 481.882353 361.411765 481.882353q41.582431 0 70.997333-29.394824Q461.803922 423.052549 461.803922 381.490196q0-41.582431-29.394824-70.997333z m-113.583686 28.41098Q336.454275 321.254902 361.411765 321.254902q24.95749 0 42.586353 17.648941Q421.647059 356.532706 421.647059 381.490196q0 24.95749-17.648941 42.586353Q386.369255 441.72549 361.411765 441.72549q-24.95749 0-42.586353-17.648941Q301.176471 406.447686 301.176471 381.490196q0-24.95749 17.648941-42.586353z" fill="#07B9B9" p-id="29909"></path></svg>