<?xml version="1.0" standalone="no"?><!DOCTYPE svg PUBLIC "-//W3C//DTD SVG 1.1//EN" "http://www.w3.org/Graphics/SVG/1.1/DTD/svg11.dtd"><svg t="1749717204995" class="icon" viewBox="0 0 1024 1024" version="1.1" xmlns="http://www.w3.org/2000/svg" p-id="19635" xmlns:xlink="http://www.w3.org/1999/xlink" width="200" height="200"><path d="M445.047192 940.748943H51.059515c-21.217721 0-40.605638-19.387917-40.605638-39.995704V143.704563c0-20.607786 19.387917-39.995704 40.005703-39.995704h156.983136c6.059349 0 7.879154 1.819805 7.879154 7.879154 0 15.758307-1.20987 31.516614 2.41974 47.274922 9.698958 38.185898 43.645312 65.452969 83.041079 65.452969h144.254504v116.377498h-109.088281c-7.279218 0-13.338567 1.819805-18.188046 7.269219-6.059349 6.669284-7.269219 14.548437-3.639609 22.427591 3.639609 8.489088 10.908828 12.728633 19.997851 12.728633h111.52802v156.983136H334.729043c-7.879154 0-15.158372 3.039673-19.397916 9.698958-9.089024 15.148373 0.609934 32.726484 18.188046 32.726485h111.528019v358.221519zM97.134566 730.431536c-10.308893 0-16.368242 3.639609-20.607787 10.908828-4.239545 7.879154-3.639609 16.368242 2.429739 23.037525 16.968177 18.178047 34.546289 36.366093 53.334271 53.334271 8.489088 7.879154 20.007851 7.269219 28.48694-1.20987 30.306744-29.69681 60.60349-60.003554 90.310299-90.310299 5.459414-5.459414 7.889153-12.128697 6.059349-19.397916-3.639609-16.968177-23.637461-23.027526-35.766158-10.298894-23.027526 22.417592-46.065052 45.455117-69.092578 68.482644-6.059349 6.059349-6.059349 6.059349-12.728633 0l-27.887004-27.877006c-4.849479-4.249544-9.698958-7.279218-14.538438-6.669283z m-2.429739-200.018514c-4.239545-0.609934-8.489088 1.20987-12.118699 4.239545-10.908828 8.489088-11.518763 23.027526-0.609934 33.946353l45.465116 45.455117c12.118698 12.118698 23.637461 12.118698 35.756159 0l67.282772-67.282772c6.669284-6.669284 13.938503-13.338567 20.607787-20.607786 10.308893-11.518763 7.279218-27.887004-6.669284-33.946354-8.489088-3.639609-16.968177-1.819805-24.237396 5.459414l-69.102577 69.102577c-4.239545 4.239545-6.059349 4.239545-10.308893 0l-29.096874-29.096875c-4.239545-4.849479-9.698958-7.879154-16.968177-7.269219z m1.219869-200.628448c-10.308893 0-18.188046 5.449415-20.607787 15.148373-2.429739 9.089024 0.609934 16.368242 6.669284 22.42759 15.758307 15.758307 30.916679 31.516614 46.674986 46.674987 11.518763 10.908828 23.037525 10.908828 33.946353 0 29.096874-28.48694 57.583814-57.583814 86.070755-86.070755 1.819805-1.819805 3.639609-3.639609 4.849479-6.059349 6.059349-9.698958 3.029675-22.427591-6.669284-29.096874-1.809806-1.20987-4.239545-1.809806-6.059349-2.41974-8.489088-2.429739-15.758307 0.609934-21.817656 6.669283-22.427591 22.427591-45.455117 44.855182-67.272774 67.882708-5.459414 5.459414-7.879154 4.849479-12.728632 0-9.089024-9.688959-18.787982-18.787982-27.887005-28.48694-4.269541-4.249544-9.11902-6.669284-15.16837-6.669283z m258.202263 464.890061h20.607786c12.728633 0 21.817656-9.089024 21.817657-21.217721 0-12.118698-9.089024-21.217721-21.817657-21.217721h-41.825507c-12.118698 0-21.817656 9.698958-21.817656 21.217721s9.698958 21.217721 21.217721 21.217721h21.817656z m0 0" fill="#CFE9F1" p-id="19636"></path><path d="M445.047192 340.083468V223.715968c36.366093 0 72.132251-0.609934 108.488346 0 24.247395 0 45.465116-6.669284 63.043228-22.427591 17.568113-15.758307 26.667135-36.376092 28.48694-60.003554 0.609934-10.908828 0.609934-21.817656 0-32.726485 0-4.849479 1.809806-6.059349 6.059349-6.059349h158.802941c18.188046 0 38.185898 19.397916 38.185898 37.575964V583.137358c0 0.609934 0 357.00165-0.609934 357.001651-6.059349-2.41974-376.999502 0.609934-383.06885 0-6.669284-0.609934-13.338567 0-19.997852 0V582.537423h46.674986c13.338567 0 22.427591-9.089024 23.037525-21.217721 0-12.728633-9.698958-21.817656-23.037525-21.817656h-46.674986v-156.983137h128.496196c16.368242 0 27.27707-16.368242 19.397917-30.90668-4.239545-8.489088-12.118698-12.128697-21.817657-12.128697-41.215573 0.599936-83.651014 0.599936-125.466522 0.599936z m255.172589 42.435441h29.69681c12.118698 0 21.217721-9.089024 21.817656-20.607786 0-11.518763-9.089024-21.217721-20.607786-21.817656-20.007851-0.609934-40.615637-0.609934-60.613489 0-12.118698 0-21.217721 10.908828-20.607786 22.42759 0.609934 11.518763 9.698958 19.387917 21.817656 19.997852h28.496939z m0 0" fill="#819BAB" p-id="19637"></path><path d="M429.288885 230.385252H283.814512c-41.215573 0-69.702512-28.48694-69.702512-69.702513 0-9.089024 0.609934-40.605638 0-49.70466 0-5.459414 1.819805-6.669284 7.269219-6.669284h111.528019c6.059349 0 8.489088 0 7.879154-7.879154C336.548847 49.15472 373.524875 7.329213 422.009667 1.879798c44.855182-5.459414 89.100429 28.48694 96.979582 73.332123 1.20987 7.279218 2.41974 15.158372 1.20987 22.42759-1.20987 6.059349 0.609934 7.269219 6.669284 7.26922 36.976028 0 73.332123 0 110.318149-0.599936 7.879154 0 10.298894 1.819805 9.698958 9.698958-1.20987 13.338567 1.20987 49.094726-1.20987 62.433293-5.459414 31.516614-32.736483 54.544141-64.853033 53.944206H429.288885z m0 0" fill="#418AA3" p-id="19638"></path><path d="M445.047192 340.083468h126.066458c9.698958 0 16.968177 3.639609 21.817656 12.118698 7.269219 13.938503-3.029675 30.306744-19.387917 30.916679H333.519173c-9.698958 0-16.368242-4.239545-19.997852-12.728633-3.639609-7.879154-1.819805-15.758307 3.639609-22.427591 4.849479-5.449415 11.518763-7.269219 18.188046-7.269219 36.95603-0.609934 73.322124-0.609934 109.698216-0.609934z m0 0" fill="#0C3158" p-id="19639"></path><path d="M97.134566 730.431536c4.849479 0 9.698958 2.41974 14.538438 7.269219l27.887004 27.877005c6.669284 6.669284 6.669284 6.669284 12.728633 0 23.027526-23.027526 45.455117-46.065052 69.092578-68.492642 12.728633-12.118698 32.126549-6.059349 35.766158 10.308892 1.819805 7.879154-0.609934 13.938503-6.059349 19.397917l-90.310299 90.310298c-8.489088 7.879154-19.397916 9.089024-28.48694 1.20987a735.457996 735.457996 0 0 1-53.334271-53.344269c-6.059349-6.669284-6.669284-15.148373-2.429739-23.027527 4.239545-7.869155 10.298894-11.508764 20.607787-11.508763z m-2.429739-200.018514c7.269219-0.609934 12.118698 2.41974 16.968177 7.269219l29.096874 29.096875c3.639609 4.239545 6.059349 4.239545 10.308893 0l69.102577-69.102577c7.879154-7.269219 15.758307-9.089024 24.237396-5.459414 13.938503 6.059349 17.578112 22.427591 6.669284 33.946354a331.099433 331.099433 0 0 1-20.607787 20.607786l-67.282772 67.282772c-12.118698 12.118698-23.637461 12.118698-35.756159 0l-45.465116-45.455117c-10.908828-10.908828-10.298894-26.0672 0.609934-33.946353 3.62961-3.029675 7.879154-4.849479 12.118699-4.239545z m1.219869-200.628448c6.059349-0.609934 10.908828 2.41974 15.148372 6.669283 9.089024 9.089024 18.787982 18.188046 27.887005 28.48694 4.849479 4.849479 7.269219 5.459414 12.728632 0 22.427591-23.027526 44.845183-45.455117 67.272774-67.882708 6.059349-6.059349 13.338567-9.089024 21.817656-6.669283 10.908828 3.029675 18.188046 13.938503 15.148373 25.457265-0.609934 2.41974-1.20987 4.239545-2.41974 6.059349-1.20987 2.41974-3.029675 4.239545-4.849479 6.059349l-86.070754 86.070755c-10.908828 10.908828-23.027526 11.518763-33.946354 0-15.758307-15.158372-30.916679-30.916679-46.674986-46.674987-6.059349-6.059349-9.698958-13.338567-6.669284-22.42759 2.439738-9.089024 10.318892-15.148373 20.627785-15.148373z m0 0" fill="#C76918" p-id="19640"></path><path d="M445.047192 540.101981h46.674986c13.338567 0 23.037525 9.089024 23.037526 21.817657 0 12.118698-9.698958 20.607786-23.037526 21.21772H333.519173c-17.578112 0-27.267071-17.578112-18.188046-32.726484 4.239545-7.269219 10.908828-9.698958 19.397916-9.698958H441.407583c0.609934-0.609934 1.819805-0.609934 3.639609-0.609935z m-90.920233 254.572654h-21.217721c-11.518763 0-21.217721-9.089024-21.21772-21.217721 0-12.118698 9.089024-21.217721 21.817656-21.217721h41.825507c12.118698 0 21.817656 9.698958 21.817656 21.217721s-9.698958 21.217721-21.817656 21.217721h-21.207722z m346.092822-412.155726h-29.096874c-12.118698 0-21.217721-8.489088-21.817657-19.997852-0.609934-11.518763 8.489088-22.427591 20.607787-22.42759 19.997852-0.609934 40.615637-0.609934 60.613488 0 11.518763 0.609934 20.607786 10.308893 20.607787 21.817656 0 11.518763-9.089024 20.607786-21.817657 20.607786h-29.096874z m0 0" fill="#0C3158" p-id="19641"></path><path d="M782.650926 567.988986c-125.466522 0-227.295583 101.829061-227.295583 227.295583 0 125.466522 101.829061 227.295583 227.295583 227.295584 125.466522 0 227.295583-101.829061 227.295584-227.295584 0.609934-125.466522-101.219127-227.295583-227.295584-227.295583z m0 0" fill="#C76918" p-id="19642"></path><path d="M782.650926 996.512953c-110.918085 0-201.228384-90.310299-201.228383-201.228384s90.310299-201.228384 201.228383-201.228384 201.228384 90.310299 201.228384 201.228384c0 111.528019-89.700364 201.228384-201.228384 201.228384z m0 0" fill="#FFCA00" p-id="19643"></path><path d="M777.201512 614.054037h11.518762v37.575964h-11.518762v-37.575964z m0 324.8851h11.518762v37.575964h-11.518762v-37.575964z m-80.011405-303.067444L715.978088 668.598178l-9.688959 5.459413-18.797981-32.736483 9.698959-5.449415z m162.432551 281.239789l18.787981 32.726485-9.698958 5.459413-18.787981-32.736483 9.698958-5.449415zM628.697464 700.124791l32.726485 18.787982-5.459414 9.698958-32.726484-18.787982 5.459413-9.698958z m281.239789 162.432551l32.726484 18.787982-5.459413 9.698958-32.726485-18.79798 5.459414-9.68896z m-308.516859-72.732186h37.575964v11.518762h-37.575964v-11.518762z m324.885101 0h37.575963v11.518762h-37.575963v-11.518762z m-270.330961 72.732186l5.459414 9.698959-32.726485 18.79798-5.459413-9.698958 32.726484-18.797981zM937.214323 700.124791l5.459413 9.698958-32.726484 18.787982-5.459414-9.698958 32.726485-18.787982zM706.289129 917.111482l9.688959 5.449415-18.787981 32.736483-9.698959-5.459413 18.797981-32.726485z m162.432551-281.239789l9.698958 5.449415-18.787981 32.736483-9.698958-5.459413 18.787981-32.726485z m0 0" fill="#0C3158" p-id="19644"></path><path d="M762.04314 795.284569c0 11.518763 9.089024 20.607786 20.617785 20.607786 11.518763 0 20.607786-9.089024 20.607786-20.607786s-9.089024-20.607786-20.607786-20.607786c-10.918827 0-20.617785 9.698958-20.617785 20.607786z m0 0" fill="#418AA3" p-id="19645"></path><path d="M772.951968 795.284569c0 3.639609 1.819805 6.669284 4.849479 8.489088 3.029675 1.819805 6.669284 1.819805 9.688959 0 3.039673-1.809806 4.849479-4.849479 4.849479-8.489088 0-3.639609-1.819805-6.669284-4.849479-8.489088-3.029675-1.809806-6.659285-1.809806-9.688959 0-3.029675 1.819805-4.849479 5.459414-4.849479 8.489088z m0 0" fill="#819BAB" p-id="19646"></path><path d="M718.407827 803.163723c19.397916-1.20987 35.146225-9.698958 35.146225-9.698958s-16.368242-6.669284-35.756159-5.459414c-19.397916 1.20987-35.156223 9.698958-35.156224 9.698958s16.368242 6.669284 35.766158 5.459414z m96.369648-88.500493c7.269219-29.69681 5.459414-55.76401 5.459414-55.76401s-13.338567 22.427591-20.007851 52.124401c-7.269219 29.69681-5.449415 55.76401-5.449415 55.764009s12.728633-22.417592 19.997852-52.1244z m0 0" fill="#C76918" p-id="19647"></path></svg>