<?xml version="1.0" standalone="no"?><!DOCTYPE svg PUBLIC "-//W3C//DTD SVG 1.1//EN" "http://www.w3.org/Graphics/SVG/1.1/DTD/svg11.dtd"><svg t="1749717290893" class="icon" viewBox="0 0 1024 1024" version="1.1" xmlns="http://www.w3.org/2000/svg" p-id="25440" xmlns:xlink="http://www.w3.org/1999/xlink" width="200" height="200"><path d="M984.602947 938.549895l-58.475789-59.338106c-13.015579-13.096421-25.977263-13.096421-39.01979-13.096421l-32.498526-32.929684c58.475789-72.434526 52.008421-184.481684-13.015579-250.341052a182.757053 182.757053 0 0 0-260.042105 0c-71.491368 72.434526-71.491368 191.029895 0 263.464421 64.997053 65.886316 175.562105 72.434526 247.053474 13.150315l32.552421 32.929685c-6.548211 13.204211 0 26.354526 12.934736 39.558736l58.556632 59.284211c12.934737 13.150316 38.992842 13.150316 58.502737 0 19.509895-13.204211 6.494316-32.983579-6.548211-52.682105" fill="#7FB3DB" p-id="25441"></path><path d="M984.602947 938.549895l-58.475789-59.338106c-13.015579-13.096421-25.977263-13.096421-39.01979-13.096421l-32.498526-32.929684c58.475789-72.434526 52.008421-184.481684-13.015579-250.341052a182.757053 182.757053 0 0 0-260.042105 0c-71.491368 72.434526-71.491368 191.029895 0 263.464421 64.997053 65.886316 175.562105 72.434526 247.053474 13.150315l32.552421 32.929685c-6.548211 13.204211 0 26.354526 12.934736 39.558736l58.556632 59.284211c12.934737 13.150316 38.992842 13.150316 58.502737 0 19.509895-13.204211 6.494316-32.983579-6.548211-52.682105" fill="#7FB3DB" p-id="25442"></path><path d="M809.094737 819.954526c-58.475789 59.284211-149.504 59.284211-201.566316 0-51.981474-59.203368-58.475789-144.869053 0-204.18021 58.556632-59.284211 149.557895-59.284211 201.566316 0 52.062316 59.311158 58.502737 151.498105 0 204.18021" fill="#FFFFFF" p-id="25443"></path><path d="M185.290105 712.218947a34.816 34.816 0 0 1 0-69.605052h307.173053c2.263579 0 4.527158 0.242526 6.790737 0.646737 32.417684-119.053474 143.548632-168.340211 265.242947-149.153685l5.955369-402.647579A68.176842 68.176842 0 0 0 702.275368 22.905263H91.701895A68.608 68.608 0 0 0 23.498105 91.432421L22.905263 852.614737a68.176842 68.176842 0 0 0 68.230737 68.392421h531.994947a241.178947 241.178947 0 0 1-132.149894-208.815158H185.290105z m-24.522105-435.523368a34.492632 34.492632 0 0 1 24.522105-10.132211h140.853895a34.762105 34.762105 0 0 1 31.447579 52.574316 34.762105 34.762105 0 0 1-31.312842 17.030737H185.478737a34.654316 34.654316 0 0 1-34.654316-34.896842 33.765053 33.765053 0 0 1 9.943579-24.576z m24.522105 167.504842h347.432421a34.842947 34.842947 0 0 1 0 69.658947H185.290105a34.816 34.816 0 0 1 0-69.658947z" fill="#0068B7" p-id="25444"></path></svg>