<?xml version="1.0" standalone="no"?><!DOCTYPE svg PUBLIC "-//W3C//DTD SVG 1.1//EN" "http://www.w3.org/Graphics/SVG/1.1/DTD/svg11.dtd"><svg t="1749717079681" class="icon" viewBox="0 0 1024 1024" version="1.1" xmlns="http://www.w3.org/2000/svg" p-id="15607" xmlns:xlink="http://www.w3.org/1999/xlink" width="200" height="200"><path d="M971.837641 1024H52.149779C34.626044 1024 20.360491 1010.954693 20.360491 994.915381V117.634201c0-16.039312 14.265553-29.084619 31.789288-29.084619h170.280884v55.942605h-140.894349v823.565209h860.965111v-286.820639h61.138084v313.728943c0 15.988993-14.265553 29.0343-31.801868 29.0343zM1003.639509 334.825356h-60.383293v-190.333169H801.846093V88.549582h170.343784c17.322457 0 31.449631 13.045307 31.449632 29.084619z" fill="#009245" p-id="15608"></path><path d="M830.855233 245.923538h-630.250614c-23.775921 0-43.136314-15.548698-43.136314-34.670074V34.670074C157.468305 15.561278 176.828698 0 200.604619 0h630.250614c23.788501 0 43.136314 15.561278 43.136315 34.670074v176.570811c0 19.133956-19.347813 34.682654-43.136315 34.682653z m-595.454742-62.609926h560.67145V62.622506H235.400491zM278.800983 824.596757a80.838133 80.838133 0 0 1-35.475184-153.474202l213.32914-103.733464a189.616118 189.616118 0 0 1 315.829778-143.812875l31.63833 28.21661-91.078133 44.31882a27.889533 27.889533 0 0 0-12.957248 37.299263l0.213857 0.440295a28.682064 28.682064 0 0 0 38.343391 13.271744l91.090713-44.281081 4.767764 39.588796a189.628698 189.628698 0 0 1-307.149681 170.331204l-213.34172 103.708305a80.272039 80.272039 0 0 1-35.211007 8.126585z m367.570712-392.403342a133.031941 133.031941 0 0 0-131.937494 148.895135l2.515971 20.127764-248.779165 120.967863a24.165897 24.165897 0 0 0-11.108009 32.091204 24.052678 24.052678 0 0 0 32.103783 11.10801l248.728846-120.942703 14.315872 14.353612a132.818084 132.818084 0 0 0 224.059754-66.811597l-12.78113 6.214447a85.542998 85.542998 0 0 1-114.275381-39.500737l-0.213857-0.452875a84.700147 84.700147 0 0 1 39.135921-113.218673l7.095037-3.44688a132.088452 132.088452 0 0 0-48.860148-9.38457z" fill="#009245" p-id="15609"></path></svg>