<?xml version="1.0" standalone="no"?><!DOCTYPE svg PUBLIC "-//W3C//DTD SVG 1.1//EN" "http://www.w3.org/Graphics/SVG/1.1/DTD/svg11.dtd"><svg t="1749717241480" class="icon" viewBox="0 0 1024 1024" version="1.1" xmlns="http://www.w3.org/2000/svg" p-id="21665" xmlns:xlink="http://www.w3.org/1999/xlink" width="200" height="200"><path d="M464.361962 1024H395.353266a324.830609 324.830609 0 0 1-232.314435-98.482087A340.368696 340.368696 0 0 1 66.782831 687.682783V1.157565h831.755131v511.421218h-117.314783v-391.346087H184.854483v567.206956c0 119.362783 94.564174 216.153043 211.211131 216.153044h69.008696L464.361962 1024z" fill="#FFB023" p-id="21666"></path><path d="M934.244397 637.729391l-67.628522 69.186783a42.473739 42.473739 0 0 1-30.363826 12.911304 42.473739 42.473739 0 0 1-30.408348-12.911304 44.521739 44.521739 0 0 1-12.599652-31.120696 44.521739 44.521739 0 0 1 12.599652-31.120695l67.584-70.344348c-72.659478-43.186087-165.353739-24.486957-216.598261 43.720348a174.258087 174.258087 0 0 0 14.336 225.502608 164.507826 164.507826 0 0 0 220.338087 14.692174c66.604522-52.446609 84.902957-147.322435 42.74087-221.718261v1.202087z" fill="#FF6C39" p-id="21667"></path><path d="M505.232918 912.11687l136.414609-139.664696 100.218435 102.622609L605.495875 1014.650435z" fill="#FF6C39" p-id="21668"></path><path d="M275.411701 346.824348h411.91513V226.704696H275.411701V346.824348z m0 233.961739h265.705739v-120.119652H275.411701v120.119652z" fill="#FFAC16" p-id="21669"></path></svg>